<?xml version="1.0" encoding="utf-8"?>
<!-- Generator: Adobe Illustrator 17.1.0, SVG Export Plug-In . SVG Version: 6.00 Build 0)  -->
<!DOCTYPE svg PUBLIC "-//W3C//DTD SVG 1.1//EN" "http://www.w3.org/Graphics/SVG/1.1/DTD/svg11.dtd">
<svg version="1.1" id="Layer_1" xmlns="http://www.w3.org/2000/svg" xmlns:xlink="http://www.w3.org/1999/xlink" x="0px" y="0px"
	 viewBox="0 0 960 560" enable-background="new 0 0 960 560" xml:space="preserve">
<g>
	<linearGradient id="SVGID_1_" gradientUnits="userSpaceOnUse" x1="382.4683" y1="270.4827" x2="404.4326" y2="293.4732">
		<stop  offset="0" style="stop-color:#6ABC45"/>
		<stop  offset="1" style="stop-color:#0F7F3F"/>
	</linearGradient>
	<path fill="url(#SVGID_1_)" d="M396.7,253.6c4.4,21.2,2,42.5-5.9,61.3l0,0c6.1-14.9,17.4-27.1,31.8-34.2l0,0
		C416.7,269.5,407.8,260.1,396.7,253.6L396.7,253.6z"/>
	<linearGradient id="SVGID_2_" gradientUnits="userSpaceOnUse" x1="414.702" y1="258.1626" x2="454.47" y2="268.3706">
		<stop  offset="0" style="stop-color:#6ABC45"/>
		<stop  offset="0.2617" style="stop-color:#57AF44"/>
		<stop  offset="0.7923" style="stop-color:#248D40"/>
		<stop  offset="1" style="stop-color:#0F7F3F"/>
	</linearGradient>
	<path fill="url(#SVGID_2_)" d="M422.7,280.6c0.3-14.6-2.4-29.3-8.2-42.9l0,0c18.3,6,33,19.2,41,36.2h0c-1.2-0.1-2.5-0.1-3.7-0.1
		C441.3,273.8,431.4,276.2,422.7,280.6L422.7,280.6z"/>
	<linearGradient id="SVGID_3_" gradientUnits="userSpaceOnUse" x1="429.7098" y1="231.5819" x2="491.4069" y2="275.8808">
		<stop  offset="0" style="stop-color:#6ABC45"/>
		<stop  offset="0.1822" style="stop-color:#64B845"/>
		<stop  offset="0.4137" style="stop-color:#55AE44"/>
		<stop  offset="0.6718" style="stop-color:#3B9C42"/>
		<stop  offset="0.9473" style="stop-color:#178440"/>
		<stop  offset="1" style="stop-color:#0F7F3F"/>
	</linearGradient>
	<path fill="url(#SVGID_3_)" d="M447.1,225c6.9,15.8,9.6,32.6,8.4,48.9l0,0c15.8,0.9,30.2,7.4,41.1,17.5l0,0
		C496.7,260.9,476.5,233.7,447.1,225L447.1,225z"/>
	<linearGradient id="SVGID_4_" gradientUnits="userSpaceOnUse" x1="399.3123" y1="316.0287" x2="471.0099" y2="352.4568">
		<stop  offset="0" style="stop-color:#6ABC45"/>
		<stop  offset="1" style="stop-color:#0F7F3F"/>
	</linearGradient>
	<path fill="url(#SVGID_4_)" d="M390.7,316.9c10.5-22.3,33.2-37.8,59.5-37.8c17.6,0,33.7,7,45.5,18.3l0,0
		c-9.7,37.4-29.1,72.9-58.1,102.4c-1.2,1.2-2.3,2.3-3.5,3.5l0,0c-27.4-7.9-47.5-33.2-47.5-63.2c0-8.4,1.6-16.5,4.5-23.9L390.7,316.9
		z"/>
	
		<linearGradient id="SVGID_5_" gradientUnits="userSpaceOnUse" x1="479.53" y1="209.2117" x2="487.4212" y2="389.9681" gradientTransform="matrix(1 8.305530e-003 -8.305530e-003 1 2.2907 -3.7955)">
		<stop  offset="0" style="stop-color:#6ABC45"/>
		<stop  offset="2.451956e-003" style="stop-color:#6ABC45"/>
		<stop  offset="0.4582" style="stop-color:#399B42"/>
		<stop  offset="0.805" style="stop-color:#1A8740"/>
		<stop  offset="1" style="stop-color:#0F7F3F"/>
	</linearGradient>
	<path fill="url(#SVGID_5_)" d="M438.9,402.7c29.3-29.3,49-64.6,59-101.9l1.4-5.4c13-53.9,6.1-111.6-20.7-161.4l0,0
		c128.9,194.8,23.8,302.1-47.6,276.2c0.3-0.4,4.3-4,4.3-4S437.7,403.8,438.9,402.7z"/>
	<linearGradient id="SVGID_6_" gradientUnits="userSpaceOnUse" x1="435.7947" y1="404.2325" x2="435.7947" y2="404.2325">
		<stop  offset="0" style="stop-color:#6ABC45"/>
		<stop  offset="2.451956e-003" style="stop-color:#6ABC45"/>
		<stop  offset="0.4582" style="stop-color:#399B42"/>
		<stop  offset="0.805" style="stop-color:#1A8740"/>
		<stop  offset="1" style="stop-color:#0F7F3F"/>
	</linearGradient>
	<path fill="url(#SVGID_6_)" d="M435.8,404.2"/>
</g>
</svg>
