<?xml version="1.0" encoding="UTF-8" standalone="no"?>
<!-- Generator: Adobe Illustrator 17.1.0, SVG Export Plug-In . SVG Version: 6.00 Build 0)  -->

<svg
   xmlns:dc="http://purl.org/dc/elements/1.1/"
   xmlns:cc="http://creativecommons.org/ns#"
   xmlns:rdf="http://www.w3.org/1999/02/22-rdf-syntax-ns#"
   xmlns:svg="http://www.w3.org/2000/svg"
   xmlns="http://www.w3.org/2000/svg"
   xmlns:sodipodi="http://sodipodi.sourceforge.net/DTD/sodipodi-0.dtd"
   xmlns:inkscape="http://www.inkscape.org/namespaces/inkscape"
   version="1.1"
   id="Layer_1"
   x="0px"
   y="0px"
   viewBox="0 0 172.85126 300.02017"
   enable-background="new 0 0 960 560"
   xml:space="preserve"
   inkscape:version="0.91 r13725"
   sodipodi:docname="logoSvg.svg"
   width="172.85126"
   height="300.02017"><metadata
     id="metadata3417"><rdf:RDF><cc:Work
         rdf:about=""><dc:format>image/svg+xml</dc:format><dc:type
           rdf:resource="http://purl.org/dc/dcmitype/StillImage" /><dc:title></dc:title></cc:Work></rdf:RDF></metadata><defs
     id="defs3415" /><sodipodi:namedview
     pagecolor="#ffffff"
     bordercolor="#ffffff"
     borderopacity="0"
     objecttolerance="10"
     gridtolerance="10"
     guidetolerance="10"
     inkscape:pageopacity="0"
     inkscape:pageshadow="2"
     inkscape:window-width="1280"
     inkscape:window-height="962"
     id="namedview3413"
     showgrid="false"
     fit-margin-top="10"
     fit-margin-left="10"
     fit-margin-right="10"
     fit-margin-bottom="10"
     inkscape:zoom="1.203125"
     inkscape:cx="103.4"
     inkscape:cy="144.02016"
     inkscape:window-x="-8"
     inkscape:window-y="-8"
     inkscape:window-maximized="1"
     inkscape:current-layer="Layer_1" /><g
     id="g3345"
     transform="translate(-376.6,-124)"><linearGradient
       id="SVGID_1_"
       gradientUnits="userSpaceOnUse"
       x1="382.46829"
       y1="270.4827"
       x2="404.43259"
       y2="293.47321"><stop
         offset="0"
         style="stop-color:#6ABC45"
         id="stop3348" /><stop
         offset="1"
         style="stop-color:#0F7F3F"
         id="stop3350" /></linearGradient><path
       d="m 396.7,253.6 c 4.4,21.2 2,42.5 -5.9,61.3 l 0,0 c 6.1,-14.9 17.4,-27.1 31.8,-34.2 l 0,0 c -5.9,-11.2 -14.8,-20.6 -25.9,-27.1 l 0,0 z"
       id="path3352"
       inkscape:connector-curvature="0"
       style="fill:url(#SVGID_1_)" /><linearGradient
       id="SVGID_2_"
       gradientUnits="userSpaceOnUse"
       x1="414.702"
       y1="258.1626"
       x2="454.47"
       y2="268.37061"><stop
         offset="0"
         style="stop-color:#6ABC45"
         id="stop3355" /><stop
         offset="0.2617"
         style="stop-color:#57AF44"
         id="stop3357" /><stop
         offset="0.7923"
         style="stop-color:#248D40"
         id="stop3359" /><stop
         offset="1"
         style="stop-color:#0F7F3F"
         id="stop3361" /></linearGradient><path
       d="m 422.7,280.6 c 0.3,-14.6 -2.4,-29.3 -8.2,-42.9 l 0,0 c 18.3,6 33,19.2 41,36.2 l 0,0 c -1.2,-0.1 -2.5,-0.1 -3.7,-0.1 -10.5,0 -20.4,2.4 -29.1,6.8 l 0,0 z"
       id="path3363"
       inkscape:connector-curvature="0"
       style="fill:url(#SVGID_2_)" /><linearGradient
       id="SVGID_3_"
       gradientUnits="userSpaceOnUse"
       x1="429.70981"
       y1="231.58189"
       x2="491.40689"
       y2="275.8808"><stop
         offset="0"
         style="stop-color:#6ABC45"
         id="stop3366" /><stop
         offset="0.1822"
         style="stop-color:#64B845"
         id="stop3368" /><stop
         offset="0.4137"
         style="stop-color:#55AE44"
         id="stop3370" /><stop
         offset="0.6718"
         style="stop-color:#3B9C42"
         id="stop3372" /><stop
         offset="0.9473"
         style="stop-color:#178440"
         id="stop3374" /><stop
         offset="1"
         style="stop-color:#0F7F3F"
         id="stop3376" /></linearGradient><path
       d="m 447.1,225 c 6.9,15.8 9.6,32.6 8.4,48.9 l 0,0 c 15.8,0.9 30.2,7.4 41.1,17.5 l 0,0 c 0.1,-30.5 -20.1,-57.7 -49.5,-66.4 l 0,0 z"
       id="path3378"
       inkscape:connector-curvature="0"
       style="fill:url(#SVGID_3_)" /><linearGradient
       id="SVGID_4_"
       gradientUnits="userSpaceOnUse"
       x1="399.31229"
       y1="316.02869"
       x2="471.00989"
       y2="352.45679"><stop
         offset="0"
         style="stop-color:#6ABC45"
         id="stop3381" /><stop
         offset="1"
         style="stop-color:#0F7F3F"
         id="stop3383" /></linearGradient><path
       d="m 390.7,316.9 c 10.5,-22.3 33.2,-37.8 59.5,-37.8 17.6,0 33.7,7 45.5,18.3 l 0,0 c -9.7,37.4 -29.1,72.9 -58.1,102.4 -1.2,1.2 -2.3,2.3 -3.5,3.5 l 0,0 c -27.4,-7.9 -47.5,-33.2 -47.5,-63.2 0,-8.4 1.6,-16.5 4.5,-23.9 l -0.4,0.7 z"
       id="path3385"
       inkscape:connector-curvature="0"
       style="fill:url(#SVGID_4_)" /><linearGradient
       id="SVGID_5_"
       gradientUnits="userSpaceOnUse"
       x1="479.53"
       y1="209.2117"
       x2="487.4212"
       y2="389.96811"
       gradientTransform="matrix(1,0.00830553,-0.00830553,1,2.2907,-3.7955)"><stop
         offset="0"
         style="stop-color:#6ABC45"
         id="stop3388" /><stop
         offset="2.451956e-003"
         style="stop-color:#6ABC45"
         id="stop3390" /><stop
         offset="0.4582"
         style="stop-color:#399B42"
         id="stop3392" /><stop
         offset="0.805"
         style="stop-color:#1A8740"
         id="stop3394" /><stop
         offset="1"
         style="stop-color:#0F7F3F"
         id="stop3396" /></linearGradient><path
       d="m 438.9,402.7 c 29.3,-29.3 49,-64.6 59,-101.9 l 1.4,-5.4 c 13,-53.9 6.1,-111.6 -20.7,-161.4 l 0,0 c 128.9,194.8 23.8,302.1 -47.6,276.2 0.3,-0.4 4.3,-4 4.3,-4 0,0 2.4,-2.4 3.6,-3.5 z"
       id="path3398"
       inkscape:connector-curvature="0"
       style="fill:url(#SVGID_5_)" /><linearGradient
       id="SVGID_6_"
       gradientUnits="userSpaceOnUse"
       x1="435.79471"
       y1="404.23251"
       x2="435.79471"
       y2="404.23251"><stop
         offset="0"
         style="stop-color:#6ABC45"
         id="stop3401" /><stop
         offset="2.451956e-003"
         style="stop-color:#6ABC45"
         id="stop3403" /><stop
         offset="0.4582"
         style="stop-color:#399B42"
         id="stop3405" /><stop
         offset="0.805"
         style="stop-color:#1A8740"
         id="stop3407" /><stop
         offset="1"
         style="stop-color:#0F7F3F"
         id="stop3409" /></linearGradient><path
       d="M 435.8,404.2"
       id="path3411"
       inkscape:connector-curvature="0"
       style="fill:url(#SVGID_6_)" /></g></svg>